<svg width="800" height="600" xmlns="http://www.w3.org/2000/svg">

 <g>
  <title>Layer 1</title>
  <g>

   <g id="svg_8">
    <path fill="#ff0000" id="svg_10" d="m374.79286,555.50023c-13.77504,-15.43632 -48.17067,-45.52968 -76.4347,-66.87411c-83.7441,-63.24184 -95.14169,-72.39422 -129.14353,-103.70324c-62.68453,-57.72017 -89.30562,-115.71002 -89.21439,-194.33964c0.04451,-38.38385 2.66077,-53.17195 13.40988,-75.79726c18.2367,-38.38571 45.10027,-66.90931 79.44532,-84.35452c24.3254,-12.35578 36.32265,-17.84526 76.94443,-18.06984c42.49329,-0.23483 51.43863,4.71973 76.43471,18.45184c30.42451,16.71432 61.7399,52.43571 68.21323,77.81059l3.9981,15.6724l9.85963,-21.58451c55.71617,-121.97293 233.59836,-120.14805 295.50229,3.03159c19.63767,39.07605 21.79364,122.51317 4.38012,169.51287c-22.71527,61.30937 -65.38001,108.05053 -164.00634,179.67658c-64.68082,46.97364 -137.88474,118.04586 -142.98067,128.02803c-5.91548,11.58753 -0.28216,1.8159 -26.40808,-27.46078z"/>
    <g id="svg_9" transform="translate(129.286 -64.2857)"/>
   </g>
  </g>
  <text transform="matrix(1 0 0 1 0 0)" style="cursor: move;" stroke="#000" xml:space="preserve" text-anchor="start" font-family="Noto Sans JP" font-size="230" id="svg_12" y="370" x="340" stroke-width="0" fill="#ffffff">1</text>
 </g>
</svg>